<mxfile host="app.diagrams.net" modified="2024-02-28T09:43:51.346Z" agent="Mozilla/5.0 (Windows NT 10.0; Win64; x64) AppleWebKit/537.36 (KHTML, like Gecko) Chrome/120.0.0.0 Safari/537.36" version="23.1.7" etag="4br4vYuFA0DTr0TWN4LJ" type="github">
  <diagram name="Trang-1" id="g21zpeq6F27mwoHPAh9u">
    <mxGraphModel>
      <root>
        <mxCell id="0" />
        <mxCell id="1" parent="0" />
      </root>
    </mxGraphModel>
  </diagram>
</mxfile>
